<mxfile host="app.diagrams.net" modified="2023-07-26T13:42:03.708Z" agent="Mozilla/5.0 (Windows NT 10.0; Win64; x64) AppleWebKit/537.36 (KHTML, like Gecko) Chrome/115.0.0.0 Safari/537.36" etag="YJU-jwfq0TeMxIj8aCU-" version="21.6.2" type="device">
  <diagram name="Página-1" id="glNu3QvpkaY0cb9_2bvv">
    <mxGraphModel dx="874" dy="456" grid="1" gridSize="10" guides="1" tooltips="1" connect="1" arrows="1" fold="1" page="1" pageScale="1" pageWidth="827" pageHeight="1169" math="0" shadow="0">
      <root>
        <mxCell id="0" />
        <mxCell id="1" parent="0" />
        <mxCell id="lCDlNghkXvYPvKMIMhRT-1" value="Vendedor" style="shape=umlActor;verticalLabelPosition=bottom;verticalAlign=top;html=1;outlineConnect=0;" vertex="1" parent="1">
          <mxGeometry x="170" y="100" width="30" height="60" as="geometry" />
        </mxCell>
        <mxCell id="lCDlNghkXvYPvKMIMhRT-2" value="Encargado" style="shape=umlActor;verticalLabelPosition=bottom;verticalAlign=top;html=1;outlineConnect=0;" vertex="1" parent="1">
          <mxGeometry x="170" y="290" width="30" height="60" as="geometry" />
        </mxCell>
        <mxCell id="lCDlNghkXvYPvKMIMhRT-5" value="ºSistema" style="swimlane;startSize=0;align=left;verticalAlign=top;" vertex="1" parent="1">
          <mxGeometry x="240" y="20" width="520" height="430" as="geometry" />
        </mxCell>
        <mxCell id="lCDlNghkXvYPvKMIMhRT-6" value="Ventas" style="swimlane;startSize=0;align=left;verticalAlign=top;" vertex="1" parent="lCDlNghkXvYPvKMIMhRT-5">
          <mxGeometry x="45" y="20" width="430" height="160" as="geometry" />
        </mxCell>
        <mxCell id="lCDlNghkXvYPvKMIMhRT-8" value="CU-009&lt;br&gt;Facturar Servicio" style="ellipse;whiteSpace=wrap;html=1;" vertex="1" parent="lCDlNghkXvYPvKMIMhRT-6">
          <mxGeometry x="270" y="30" width="120" height="80" as="geometry" />
        </mxCell>
        <mxCell id="lCDlNghkXvYPvKMIMhRT-14" value="CU-008&lt;br&gt;Cotizar Servicio" style="ellipse;whiteSpace=wrap;html=1;" vertex="1" parent="lCDlNghkXvYPvKMIMhRT-6">
          <mxGeometry x="50" y="30" width="120" height="80" as="geometry" />
        </mxCell>
        <mxCell id="lCDlNghkXvYPvKMIMhRT-17" value="" style="endArrow=classic;html=1;rounded=0;entryX=0;entryY=0.5;entryDx=0;entryDy=0;exitX=1;exitY=0.5;exitDx=0;exitDy=0;dashed=1;dashPattern=8 8;verticalAlign=middle;align=left;" edge="1" parent="lCDlNghkXvYPvKMIMhRT-6" source="lCDlNghkXvYPvKMIMhRT-14" target="lCDlNghkXvYPvKMIMhRT-8">
          <mxGeometry width="50" height="50" relative="1" as="geometry">
            <mxPoint x="100" y="200" as="sourcePoint" />
            <mxPoint x="150" y="150" as="targetPoint" />
          </mxGeometry>
        </mxCell>
        <mxCell id="lCDlNghkXvYPvKMIMhRT-18" value="&lt;p style=&quot;line-height: 120%;&quot;&gt;&lt;font style=&quot;font-size: 10px;&quot;&gt;«include»&lt;/font&gt;&lt;/p&gt;" style="edgeLabel;html=1;align=right;verticalAlign=top;resizable=0;points=[];spacing=0;labelBorderColor=none;" vertex="1" connectable="0" parent="lCDlNghkXvYPvKMIMhRT-17">
          <mxGeometry x="0.28" y="-1" relative="1" as="geometry">
            <mxPoint y="-1" as="offset" />
          </mxGeometry>
        </mxCell>
        <mxCell id="lCDlNghkXvYPvKMIMhRT-7" value="Logística" style="swimlane;startSize=0;align=left;verticalAlign=top;" vertex="1" parent="lCDlNghkXvYPvKMIMhRT-5">
          <mxGeometry x="50" y="250" width="430" height="140" as="geometry" />
        </mxCell>
        <mxCell id="lCDlNghkXvYPvKMIMhRT-19" value="CU-012&lt;br&gt;Modificar Peso" style="ellipse;whiteSpace=wrap;html=1;" vertex="1" parent="lCDlNghkXvYPvKMIMhRT-7">
          <mxGeometry x="45" y="50" width="120" height="80" as="geometry" />
        </mxCell>
        <mxCell id="lCDlNghkXvYPvKMIMhRT-21" value="" style="endArrow=classic;html=1;rounded=0;exitX=1;exitY=0.5;exitDx=0;exitDy=0;dashed=1;dashPattern=8 8;verticalAlign=middle;align=left;" edge="1" parent="lCDlNghkXvYPvKMIMhRT-5" source="lCDlNghkXvYPvKMIMhRT-19" target="lCDlNghkXvYPvKMIMhRT-8">
          <mxGeometry width="50" height="50" relative="1" as="geometry">
            <mxPoint x="225" y="120" as="sourcePoint" />
            <mxPoint x="310" y="320" as="targetPoint" />
          </mxGeometry>
        </mxCell>
        <mxCell id="lCDlNghkXvYPvKMIMhRT-22" value="&lt;p style=&quot;line-height: 120%;&quot;&gt;&lt;font style=&quot;font-size: 10px;&quot;&gt;«include»&lt;/font&gt;&lt;/p&gt;" style="edgeLabel;html=1;align=right;verticalAlign=top;resizable=0;points=[];spacing=0;labelBorderColor=none;" vertex="1" connectable="0" parent="lCDlNghkXvYPvKMIMhRT-21">
          <mxGeometry x="0.28" y="-1" relative="1" as="geometry">
            <mxPoint x="14" y="2" as="offset" />
          </mxGeometry>
        </mxCell>
        <mxCell id="lCDlNghkXvYPvKMIMhRT-15" value="" style="endArrow=none;html=1;rounded=0;" edge="1" parent="1" source="lCDlNghkXvYPvKMIMhRT-1" target="lCDlNghkXvYPvKMIMhRT-14">
          <mxGeometry width="50" height="50" relative="1" as="geometry">
            <mxPoint x="390" y="260" as="sourcePoint" />
            <mxPoint x="440" y="210" as="targetPoint" />
          </mxGeometry>
        </mxCell>
        <mxCell id="lCDlNghkXvYPvKMIMhRT-24" value="" style="endArrow=none;html=1;rounded=0;entryX=0;entryY=0.5;entryDx=0;entryDy=0;" edge="1" parent="1" source="lCDlNghkXvYPvKMIMhRT-2" target="lCDlNghkXvYPvKMIMhRT-19">
          <mxGeometry width="50" height="50" relative="1" as="geometry">
            <mxPoint x="390" y="250" as="sourcePoint" />
            <mxPoint x="440" y="200" as="targetPoint" />
          </mxGeometry>
        </mxCell>
      </root>
    </mxGraphModel>
  </diagram>
</mxfile>
